<?xml version="1.0" encoding="UTF-8"?>
<svg width="28px" height="28px" viewBox="0 0 28 28" version="1.1" xmlns="http://www.w3.org/2000/svg" xmlns:xlink="http://www.w3.org/1999/xlink">
    <!-- Generator: Sketch 42 (36781) - http://www.bohemiancoding.com/sketch -->
    <title>files</title>
    <desc>Created with Sketch.</desc>
    <defs></defs>
    <g id="icons" stroke="none" stroke-width="1" fill="none" fill-rule="evenodd">
        <g id="files" fill-rule="nonzero" fill="#000000">
            <path d="M12,0 L12,0.8457031 L12,5 L14,7 L14,2 L21,2 L21,6 L21,7 L22,7 L26,7 L26,20 L18,20 L18,22 L27.199219,22 L28,22 L28,21.154297 L28,5.9238281 L28,5.578125 L27.775391,5.3144531 L22.974609,0.2382812 L22.724609,0 L22.400391,0 L12.800781,0 L12,0 Z M23.199219,2.9082031 L25.25,5.0761719 L23.199219,5.0761719 L23.199219,2.9082031 Z M0,6 L0,27.154297 L0,28 L0.8007812,28 L15.199219,28 L16,28 L16,27.154297 L16,11.923828 L16,11.578125 L15.775391,11.314453 L11,6 L0,6 Z M2,8 L9,8 L9,12 L9,13 L10,13 L14,13 L14,26 L2,26 L2,8 Z M11.199219,8.908203 L13.25,11.076172 L11.199219,11.076172 L11.199219,8.908203 Z M18,10 L18,12 L24,12 L24,10 L18,10 Z M18,14 L18,16 L24,16 L24,14 L18,14 Z M4,16 L4,18 L12,18 L12,16 L4,16 Z M4,20 L4,22 L12,22 L12,20 L4,20 Z" id="Shape"></path>
        </g>
    </g>
</svg>