<svg xmlns="http://www.w3.org/2000/svg" width="73" height="75" viewBox="0 0 73 75">
  <g fill="none" fill-rule="evenodd">
    <path fill="#000000" fill-opacity=".095" d="M46.5 28.75C46.5 28.062 45.938 27.5 45.25 27.5L14 27.5C13.312 27.5 12.75 28.062 12.75 28.75 12.75 29.438 13.312 30 14 30L45.25 30C45.938 30 46.5 29.438 46.5 28.75zM14 20L26.5 20C27.188 20 27.75 19.438 27.75 18.75 27.75 18.062 27.188 17.5 26.5 17.5L14 17.5C13.312 17.5 12.75 18.062 12.75 18.75 12.75 19.438 13.312 20 14 20zM37.75 37.5L14 37.5C13.312 37.5 12.75 38.062 12.75 38.75 12.75 39.438 13.312 40 14 40L37.75 40C38.438 40 39 39.438 39 38.75 39 38.062 38.438 37.5 37.75 37.5zM39 48.75C39 48.062 38.438 47.5 37.75 47.5L14 47.5C13.312 47.5 12.75 48.062 12.75 48.75 12.75 49.438 13.312 50 14 50L37.75 50C38.438 50 39 49.438 39 48.75zM14 57.5C13.312 57.5 12.75 58.062 12.75 58.75 12.75 59.438 13.312 60 14 60L34 60C34.688 60 35.25 59.438 35.25 58.75 35.25 58.062 34.688 57.5 34 57.5L14 57.5z"/>
    <path fill="#000000" fill-opacity=".095" d="M2.75,2.5 L39,2.5 L39,20 L56.5,20 L56.5,41.25 L59,41.25 L59,18.238 L40.762,0 L0.25,0 L0.25,75 L42.75,75 L42.75,72.5 L2.75,72.5 L2.75,2.5 Z M41.5,4.262 L54.738,17.5 L41.5,17.5 L41.5,4.262 Z"/>
    <path fill="#6AA61F" d="M57.75,45 C49.477,45 42.75,51.727 42.75,60 C42.75,68.273 49.477,75 57.75,75 C66.023,75 72.75,68.273 72.75,60 C72.75,51.727 66.023,45 57.75,45 Z M57.75,72.5 C50.863,72.5 45.25,66.887 45.25,60 C45.25,53.113 50.863,47.5 57.75,47.5 C64.637,47.5 70.25,53.113 70.25,60 C70.25,66.887 64.637,72.5 57.75,72.5 Z"/>
    <polygon fill="#66A70F" fill-rule="nonzero" points="54.763 64.26 55.46 64.957 56.167 64.269 66.285 54.434 64.89 53 54.773 62.835 56.177 62.845 52.414 59.082 51 60.496"/>
  </g>
</svg>
