<svg xmlns="http://www.w3.org/2000/svg" width="89" height="115" viewBox="0 0 89 115">
  <g fill="none" fill-rule="evenodd">
    <path fill="#E7E7E7" d="M88.7847818,54.5521127 C88.9368909,54.8614789 89.0064727,55.1708451 89,55.481831 L89,112.152535 C89,113.266901 88.0954364,114.177183 86.9772727,114.177183 L2.02272727,114.177183 C0.904563636,114.177183 0,113.266901 0,112.152535 L0,55.481831 C0,55.1708451 0.0631090909,54.8614789 0.202272727,54.5764085 C0.354381818,54.2735211 0.563127273,54.0257042 0.809090909,53.8426761 L12.1363636,45.1496479 L12.1363636,50.255 L4.04545455,56.4552817 L4.04545455,61.536338 L31.0173091,81.7828169 L57.9826909,81.7828169 L84.9545455,61.536338 L84.9545455,56.4552817 L76.8636364,50.255 L76.8636364,45.1496479 L88.1909091,53.8426761 C88.4368727,54.0257042 88.6456182,54.2735211 88.7847818,54.5521127 Z M27.2631273,84.0228873 L4.04545455,107.262606 L4.04545455,66.5979577 L27.2631273,84.0228873 Z M31.1823636,85.8321127 L57.8176364,85.8321127 L82.0903636,110.127887 L6.90963636,110.127887 L31.1823636,85.8321127 Z M61.7368727,84.0228873 L84.9545455,66.5979577 L84.9545455,107.262606 L61.7368727,84.0228873 Z"/>
    <path fill="#E7E7E7" d="M80.9090909,21.8661972 C80.9090909,21.3284507 80.6938727,20.8166197 80.3152182,20.4359859 L61.3015818,1.40429577 C60.9213091,1.02528169 60.4099636,0.809859155 59.8727273,0.809859155 L10.1136364,0.809859155 C8.99547273,0.809859155 8.09090909,1.71528169 8.09090909,2.83450704 L8.09090909,69.6478873 L12.1363636,69.6478873 L12.1363636,4.85915493 L56.6363636,4.85915493 L56.6363636,23.0809859 C56.6363636,24.2002113 57.5409273,25.1056338 58.6590909,25.1056338 L76.8636364,25.1056338 L76.8636364,69.6478873 L80.9090909,69.6478873 L80.9090909,21.8661972 Z M60.6818182,21.056338 L60.6818182,6.51612676 L75.2082364,21.056338 L60.6818182,21.056338 Z"/>
    <polygon fill="#66A70F" fill-rule="nonzero" points="37.879 60.542 39.338 62 40.818 60.563 62 39.998 59.081 37 37.9 57.565 40.839 57.585 32.961 49.717 30 52.674"/>
  </g>
</svg>
