<svg xmlns="http://www.w3.org/2000/svg" width="84" height="59" viewBox="0 0 84 59">
  <g fill="none" fill-rule="evenodd">
    <path fill="#6AA61F" d="M68.7774629,31.9654875 C75.4859388,31.9654875 80.9413948,37.3764136 80.9413948,44.0268535 C80.9413948,50.6787638 75.4859388,56.0896899 68.7774629,56.0896899 C62.0704699,56.0896899 56.6135311,50.6787638 56.6135311,44.0268535 C56.6135311,37.3764136 62.0704699,31.9654875 68.7774629,31.9654875 L68.7774629,31.9654875 Z M68.7774629,29.3332473 C60.5939341,29.3332473 53.9574632,35.9123664 53.9574632,44.026892 C53.9574632,52.1428109 60.5939341,58.7219301 68.7774629,58.7219301 C76.9623969,58.7219301 83.5974626,52.1428109 83.5974626,44.026892 C83.5974626,35.9123664 76.9623969,29.3332473 68.7774629,29.3332473 Z"/>
    <polygon fill="#66A70F" fill-rule="nonzero" points="65.763 48.26 66.46 48.957 67.167 48.269 77.285 38.434 75.89 37 65.773 46.835 67.177 46.845 63.414 43.082 62 44.496"/>
    <path fill="#000000" fill-opacity=".095" d="M71.3849842,0.470264946 L5.67723657,0.470264946 C2.65175983,0.470264946 0.202175003,2.90035326 0.202175003,5.90031929 L0.202175003,43.9060666 C0.202175003,46.9060326 2.65175983,49.3361209 5.67723657,49.3361209 L45.3752294,49.3361209 C46.1333508,49.3361209 46.7442868,48.729178 46.7442868,47.9786073 C46.7442868,47.2268784 46.1333508,46.6210937 45.3752294,46.6210937 L5.67723657,46.6210937 C4.16683448,46.6210937 2.93912172,45.403733 2.93912172,43.9060666 L2.93912172,5.90031929 C2.93912172,4.40265285 4.16683448,3.18529212 5.67723657,3.18529212 L71.3849842,3.18529212 C72.8953863,3.18529212 74.1230991,4.40265285 74.1230991,5.90031929 L74.1230991,20.8306522 C74.1230991,21.5823811 74.7340351,22.1881658 75.4921565,22.1881658 C76.2491097,22.1881658 76.8600458,21.5823811 76.8600458,20.8306522 L76.8600458,5.90031929 C76.8600458,2.90035326 74.4104609,0.470264946 71.3849842,0.470264946 Z"/>
    <path fill="#000000" fill-opacity=".095" d="M17.9975853 33.0471162L9.78440885 33.0471162C9.02628746 33.0471162 8.41535142 32.4413315 8.41535142 31.6896026 8.41535142 30.9390319 9.02628746 30.3332473 9.78440885 30.3332473L17.9975853 30.3332473C18.7545385 30.3332473 19.3666427 30.9390319 19.3666427 31.6896026 19.3666427 32.4413315 18.7545385 33.0471162 17.9975853 33.0471162zM39.9001678 41.1910394L9.78440885 41.1910394C9.02628746 41.1910394 8.41535142 40.5852548 8.41535142 39.8346841 8.41535142 39.0829552 9.02628746 38.4771705 9.78440885 38.4771705L39.9001678 38.4771705C40.6571211 38.4771705 41.2692252 39.0829552 41.2692252 39.8346841 41.2692252 40.5852548 40.6571211 41.1910394 39.9001678 41.1910394zM34.4239381 33.0471162L26.2107617 33.0471162C25.4538084 33.0471162 24.8417043 32.4413315 24.8417043 31.6896026 24.8417043 30.9390319 25.4538084 30.3332473 26.2107617 30.3332473L34.4239381 30.3332473C35.1820595 30.3332473 35.7929955 30.9390319 35.7929955 31.6896026 35.7929955 32.4413315 35.1820595 33.0471162 34.4239381 33.0471162zM50.8514591 33.0471162L42.6382827 33.0471162C41.8801613 33.0471162 41.2692252 32.4413315 41.2692252 31.6896026 41.2692252 30.9390319 41.8801613 30.3332473 42.6382827 30.3332473L50.8514591 30.3332473C51.6084123 30.3332473 52.2205165 30.9390319 52.2205165 31.6896026 52.2205165 32.4413315 51.6084123 33.0471162 50.8514591 33.0471162zM22.1047575 11.3292154L22.1047575 22.1881658 11.1522981 22.1881658 11.1522981 11.3292154 22.1047575 11.3292154 22.1047575 11.3292154zM22.1047575 8.61534647L11.1522981 8.61534647C9.64306418 8.61534647 8.41535142 9.83154891 8.41535142 11.3292154L8.41535142 22.1881658C8.41535142 23.6858322 9.64306418 24.9031929 11.1522981 24.9031929L22.1047575 24.9031929C23.6139915 24.9031929 24.8417043 23.6858322 24.8417043 22.1881658L24.8417043 11.3292154C24.8417043 9.83154891 23.6139915 8.61534647 22.1047575 8.61534647z"/>
  </g>
</svg>
