<svg xmlns="http://www.w3.org/2000/svg" width="54" height="54" viewBox="0 0 54 54">
  <g fill="none" fill-rule="evenodd">
    <path fill="#F7F7F7" d="M27,54 C41.9116882,54 54,41.9116882 54,27 C54,12.0883118 41.9116882,0 27,0 C12.0883118,0 0,12.0883118 0,27 C0,41.9116882 12.0883118,54 27,54 Z"/>
    <g fill="#00417B" transform="translate(9 11)">
      <path d="M33.713253,8.85294118 L29.9855422,8.85294118 L27.6915663,1.23529412 L23.9638554,2.34705882 L22.7349398,0.164705882 L7.29156627,7.32941176 L2.17108434,8.85294118 L0.286746988,8.85294118 L0.286746988,27.7529412 L33.713253,27.7529412 L33.713253,8.85294118 Z M28.9614458,8.85294118 L28.1831325,8.85294118 L26.913253,5.43529412 L26.3807229,5.68235294 C26.3807229,5.68235294 26.339759,5.68235294 26.339759,5.72352941 C26.0120482,5.84705882 25.6433735,5.80588235 25.3156627,5.64117647 C24.9879518,5.47647059 24.7831325,5.18823529 24.660241,4.85882353 L24.4963855,4.28235294 L8.35662651,8.85294118 L6.30843373,8.85294118 L7.61927711,8.23529412 L27.0361446,2.47058824 L28.9614458,8.85294118 Z M27.1180723,8.85294118 L11.9614458,8.85294118 L23.8409639,5.43529412 C24.0457831,5.84705882 24.4144578,6.21764706 24.8240964,6.42352941 C25.2746988,6.67058824 25.8072289,6.75294118 26.339759,6.67058824 L27.1180723,8.85294118 Z M22.3253012,1.44117647 L22.9807229,2.63529412 L13.886747,5.35294118 L22.3253012,1.44117647 Z M5.73493976,8.81176471 L5.73493976,8.81176471 L5.61204819,8.85294118 L5.73493976,8.81176471 Z M32.7301205,26.7647059 L1.26987952,26.7647059 L1.26987952,9.84117647 L32.7301205,9.84117647 L32.7301205,26.7647059 L32.7301205,26.7647059 Z"/>
      <path d="M2.86746988,23.8823529 L2.90843373,23.8823529 C3.64578313,23.8823529 4.26024096,24.5 4.26024096,25.2411765 L4.26024096,25.3235294 L4.21927711,25.8588235 L29.8216867,25.8588235 L29.7807229,25.3235294 L29.7807229,25.2411765 C29.7807229,24.5 30.3951807,23.8823529 31.1325301,23.8823529 L31.173494,23.8823529 L31.7879518,23.9235294 L31.7879518,12.6411765 L31.173494,12.7235294 L31.1325301,12.7235294 C30.3951807,12.7235294 29.7807229,12.1058824 29.7807229,11.4058824 L29.7807229,10.7882353 L4.21927711,10.7882353 L4.26024096,11.3235294 L4.26024096,11.3647059 C4.26024096,12.1058824 3.64578313,12.7235294 2.90843373,12.7235294 L2.86746988,12.7235294 L2.25301205,12.6411765 L2.25301205,23.9235294 L2.78554217,23.8823529 C2.78554217,23.8823529 2.82650602,23.8823529 2.86746988,23.8823529 Z M3.19518072,13.6705882 C4.17831325,13.5470588 4.99759036,12.7647059 5.16144578,11.7764706 L28.7975904,11.7764706 C28.9614458,12.7647059 29.7807229,13.5470588 30.7638554,13.6705882 L30.7638554,22.8941176 C29.739759,23.0176471 28.9614458,23.8411765 28.7566265,24.8294118 L5.20240964,24.8294118 C5.03855422,23.8 4.21927711,23.0176471 3.19518072,22.8941176 L3.19518072,13.6705882 L3.19518072,13.6705882 Z"/>
      <path d="M17,23.9235294 C20.0722892,23.9235294 22.5710843,21.4117647 22.5710843,18.3235294 C22.5710843,15.2352941 20.0722892,12.7235294 17,12.7235294 C13.9277108,12.7235294 11.4289157,15.2352941 11.4289157,18.3235294 C11.4289157,21.4117647 13.9277108,23.9235294 17,23.9235294 Z M17,13.7117647 C19.539759,13.7117647 21.5879518,15.7705882 21.5879518,18.3235294 C21.5879518,20.8764706 19.539759,22.9352941 17,22.9352941 C14.460241,22.9352941 12.4120482,20.8764706 12.4120482,18.3235294 C12.4120482,15.7705882 14.5012048,13.7117647 17,13.7117647 Z"/>
      <rect width="5.571" height=".988" x="22.817" y="17.829"/>
      <rect width="4.137" height=".988" x="22.817" y="15.524"/>
      <rect width="4.137" height=".988" x="22.817" y="20.135"/>
      <rect width="5.571" height=".988" x="5.653" y="17.829"/>
      <rect width="4.137" height=".988" x="7.087" y="20.135"/>
      <rect width="4.137" height=".988" x="7.087" y="15.524"/>
      <path d="M15.125,18.6341463 L15.8841463,18.6341463 L15.8841463,15.597561 L17.5853659,15.597561 C17.9939045,15.597561 18.341462,15.6539629 18.6280488,15.7667683 C18.9146356,15.8795737 19.147865,16.0289625 19.3277439,16.214939 C19.5076229,16.4009156 19.6387191,16.6173768 19.7210366,16.8643293 C19.8033541,17.1112817 19.8445122,17.3658523 19.8445122,17.6280488 C19.8445122,17.8963428 19.8033541,18.1493891 19.7210366,18.3871951 C19.6387191,18.6250012 19.5076229,18.8353649 19.3277439,19.0182927 C19.147865,19.2012204 18.9146356,19.3460361 18.6280488,19.4527439 C18.341462,19.5594518 17.9939045,19.6128049 17.5853659,19.6128049 L17.0731707,19.6128049 L17.0731707,20.3079268 L18.6829268,20.3079268 L18.6829268,21.25 L17.0731707,21.25 L17.0731707,22 L15.8841463,22 L15.8841463,21.25 L15.125,21.25 L15.125,20.3079268 L15.8841463,20.3079268 L15.8841463,19.6128049 L15.125,19.6128049 L15.125,18.6341463 Z M17.4664634,18.6341463 C17.6310984,18.6341463 17.7850603,18.620427 17.9283537,18.5929878 C18.0716471,18.5655486 18.1981702,18.5152443 18.3079268,18.4420732 C18.4176835,18.3689021 18.5030485,18.2667689 18.5640244,18.1356707 C18.6250003,18.0045725 18.6554878,17.8353669 18.6554878,17.6280488 C18.6554878,17.4207307 18.6250003,17.2469519 18.5640244,17.1067073 C18.5030485,16.9664627 18.4176835,16.8551833 18.3079268,16.7728659 C18.1981702,16.6905484 18.0716471,16.6326221 17.9283537,16.5990854 C17.7850603,16.5655486 17.6310984,16.5487805 17.4664634,16.5487805 L17.0731707,16.5487805 L17.0731707,18.6341463 L17.4664634,18.6341463 Z"/>
    </g>
  </g>
</svg>
