<svg xmlns="http://www.w3.org/2000/svg" width="32" height="21" viewBox="0 0 32 21">
  <g fill="none" fill-rule="evenodd">
    <path fill="#808080" d="M3.30584615,0.289 C1.71716923,0.289 0.426830769,1.6095 0.426830769,3.2205 L0.426830769,17.867 C0.426830769,19.4805 1.71716923,20.799 3.30584615,20.799 L28.6961231,20.799 C30.2848,20.799 31.5751385,19.4785 31.5751385,17.867 L31.5751385,3.2205 C31.5751385,1.6075 30.2848,0.289 28.6961231,0.289 L3.30584615,0.289 Z M3.30584615,1.465 L28.6961231,1.465 C29.6654769,1.465 30.4251077,2.2365 30.4251077,3.2205 L30.4251077,17.867 C30.4251077,18.8515 29.6654769,19.623 28.6961231,19.623 L3.30584615,19.623 C2.33649231,19.623 1.57686154,18.8515 1.57686154,17.867 L1.57686154,3.2205 C1.57686154,2.2365 2.33649231,1.465 3.30584615,1.465 Z"/>
    <polygon fill="#808080" points="19.463 8.489 19.463 9.664 31.004 9.664 31.004 8.489"/>
    <path fill="#808080" d="M6.20012308,4.873 L6.20012308,4.873 C5.94412308,4.867 5.7152,5.033 5.6384,5.2795 C4.85366154,7.707 4.82313846,10.1935 5.6384,12.676 C5.73095385,12.967 6.02683077,13.135 6.31926154,13.0645 C8.02904615,12.658 9.52861538,11.912 11.3865846,10.633 L10.7382154,9.664 C9.20369231,10.719 8.02116923,11.201 6.73476923,11.594 C6.28086154,9.832 6.29021538,8.0955 6.73476923,6.3595 C8.05956923,6.7635 9.27507692,7.289 10.7382154,8.289 L11.3767385,7.3205 C9.61132308,6.115 8.10190769,5.301 6.30941538,4.8885 C6.27298462,4.879 6.23655385,4.873 6.19815385,4.871 L6.20012308,4.873 Z"/>
    <path fill="#808080" d="M12.8270769,6.119 C11.2403692,6.119 9.94018462,7.4415 9.94018462,9.051 C9.94018462,10.662 11.2423385,11.9825 12.8270769,11.9825 C14.4132923,11.9825 15.7134769,10.66 15.7134769,9.051 C15.7134769,7.4395 14.4113231,6.119 12.8270769,6.119 Z M12.8270769,7.295 C13.7905231,7.295 14.5555692,8.074 14.5555692,9.051 C14.5555692,10.0295 13.7885538,10.8065 12.8270769,10.8065 C11.8636308,10.8065 11.0980923,10.0275 11.0980923,9.051 C11.0980923,8.0725 11.8656,7.295 12.8270769,7.295 Z"/>
    <path fill="#808080" d="M10.2286769,10.4435 L10.2286769,16.1095 C10.2326154,16.631 10.8558769,16.8885 11.2172308,16.5155 L12.8270769,14.8555 L14.4364308,16.5155 C14.7982769,16.8865 15.4210462,16.631 15.4249846,16.1095 L15.4249846,10.4435 L14.2670769,10.4435 L14.2670769,14.674 L13.2366769,13.6095 C13.0116923,13.379 12.6444308,13.379 12.4194462,13.6095 L11.3885538,14.674 L11.3885538,10.4435 L10.2306462,10.4435 L10.2286769,10.4435 Z"/>
    <polygon fill="#808080" points="8.79 8.395 8.79 9.563 10.519 9.563 10.519 8.395"/>
    <polygon fill="#808080" points="15.136 8.395 15.136 9.563 16.865 9.563 16.865 8.395"/>
    <path fill="#808080" d="M19.4363077,4.873 L19.4363077,4.873 C19.4057846,4.877 19.3732923,4.883 19.3442462,4.8905 C17.5497846,5.301 16.0324923,6.117 14.2670769,7.3225 L14.9154462,8.291 C16.3805538,7.291 17.5921231,6.7655 18.9193846,6.3615 C19.3634462,8.0975 19.3732923,9.832 18.9193846,11.5955 C17.6324923,11.203 16.4499692,10.7205 14.9154462,9.666 L14.2670769,10.635 C16.1270154,11.914 17.6251077,12.658 19.3344,13.0665 C19.6268308,13.1365 19.9232,12.967 20.0152615,12.6775 C20.8305231,10.1955 20.8,7.709 20.0152615,5.281 C19.9345231,5.0275 19.6982154,4.8615 19.4363077,4.875 L19.4363077,4.873 Z"/>
    <polygon fill="#808080" points=".996 8.489 .996 9.664 5.323 9.664 5.323 8.489"/>
    <rect width="5" height="4" x="23" y="12" stroke="#808080" stroke-linecap="square" rx="1"/>
  </g>
</svg>
